<?xml version="1.0" encoding="utf-8"?>
<!DOCTYPE svg PUBLIC "-//W3C//DTD SVG 1.0//EN" "http://www.w3.org/TR/2001/REC-SVG-20010904/DTD/svg10.dtd">
<svg version="1.0" xmlns="http://www.w3.org/2000/svg" width="596px" height="497px" viewBox="0 0 596 497" preserveAspectRatio="xMidYMid meet">
 <g fill="#d02030">
  <path d="M280.2 336.3 c-208.8 -0.3 -236.3 -0.5 -236.8 -1.8 -0.5 -1.2 -2.8 -1.5 -11.6 -1.5 -13.1 0 -17.4 -1.1 -22.9 -5.9 -8.3 -7 -7.9 -2.4 -7.9 -83.3 l0 -71.8 25.4 0 c24.6 0 25.5 -0.1 26.1 -2 0.6 -2 1.5 -2 246.7 -2 245.1 0 246 0 246.5 2 0.5 1.9 1.4 2 16.2 2 13 0 16.3 0.4 19.6 1.9 5.1 2.3 9.3 6.5 11.6 11.6 1.7 3.8 1.9 8.3 1.9 75.8 l0 71.7 -20 0 c-17.1 0 -20 0.2 -20 1.5 0 1.3 -2.3 1.5 -14.2 1.5 -7.9 0 -16.5 0.2 -19.3 0.3 -2.7 0.2 -111.3 0.2 -241.3 0z m-88.7 -57.8 c5.6 -3.2 5 -5.1 -0.8 -2.5 -5 2.3 -15.3 2.6 -20 0.6 -5.4 -2.3 -8 -5.9 -8.5 -12.1 l-0.4 -5.5 19.7 0 19.8 0 -0.5 -4.4 c-1 -8.8 -7.2 -17.5 -14.6 -20.7 -5.7 -2.5 -10.5 -2.4 -15.9 0.2 -12.4 6 -18.3 20.1 -13.3 31.7 2.6 5.9 9.9 13.2 15.2 15 5.3 1.8 14.1 0.8 19.3 -2.3z m44.4 2.4 c4.9 -1.7 4 -3.9 -1.7 -3.9 -2.7 0 -5.7 -0.7 -7 -1.6 -2.1 -1.5 -2.2 -2 -2.2 -19.5 l0 -17.9 7 0 c6.8 0 7 -0.1 7 -2.5 0 -2.4 -0.2 -2.5 -7 -2.5 l-7 0 0 -7.5 0 -7.5 -3.5 0 -3.5 0 0 7.5 0 7.5 -3.5 0 c-3.1 0 -3.5 0.3 -3.5 2.5 0 2.2 0.4 2.5 3.4 2.5 l3.4 0 0.4 17.8 c0.3 19.6 0.9 21.5 7.1 24.6 3.8 1.9 6.3 2 10.6 0.5z m43.4 -17.2 l5.9 -17.8 3.5 0.3 3.6 0.3 5.6 17.5 c5.3 16.3 5.8 17.5 8.2 17.8 2.5 0.3 2.7 -0.3 10.2 -23.1 4.2 -12.9 7.7 -23.9 7.7 -24.6 0 -0.6 -0.9 -1.1 -2 -1.1 -2 0 -3.1 3 -10.1 27.3 l-2.3 7.7 -3.6 0 -3.5 0 -5.4 -17 c-5.4 -17 -6.8 -19.7 -9.5 -18.7 -0.7 0.3 -3.9 8.6 -7.2 18.6 l-5.7 18.1 -3.2 0 -3.2 0 -5.3 -18 c-4.9 -16.8 -5.4 -18 -7.6 -18 -1.3 0 -2.4 0.3 -2.4 0.6 0 1.1 14.2 44.9 15.2 46.7 0.6 1.1 1.8 1.7 3 1.5 1.8 -0.3 3.1 -3.1 8.1 -18.1z m90.7 16.2 c6.5 -2.9 12.7 -9.4 15 -15.7 2.7 -7.1 2.5 -9.8 -1.1 -17.1 -3.3 -6.6 -6.8 -9.8 -14.4 -13.2 -12.5 -5.5 -28.2 2.9 -32.9 17.6 -1.7 5.3 -1.7 5.9 0 11.1 3.3 10.6 14.4 19.4 24.4 19.4 2.5 0 6.5 -1 9 -2.1z m-283 -23.9 l0 -25 3.3 0 c3.1 0 4.3 1.3 22.7 25 15.5 20 19.8 25 21.7 25 l2.3 0 0 -33 0 -33 -3.5 0 -3.5 0 0 24 0 24 -3.2 0 c-3.1 0 -4.4 -1.4 -21.8 -24 -17.4 -22.5 -18.7 -24 -21.7 -24 l-3.3 0 0 32.3 c0 17.8 0.3 32.7 0.7 33 0.3 0.4 1.9 0.7 3.5 0.7 l2.8 0 0 -25z m322.2 10.8 c0.3 -13.3 0.5 -14.6 3 -19 l2.7 -4.8 -3 0 c-2.8 0 -2.9 -0.1 -2.9 -5.1 l0 -5 -3.2 0.3 -3.3 0.3 -0.3 22.5 c-0.1 12.3 0 23 0.2 23.7 0.3 0.7 1.9 1.3 3.5 1.3 l2.9 0 0.4 -14.2z m38.8 6.5 c0 -7.5 0.1 -7.8 3.7 -11.5 2.7 -2.8 4.5 -3.8 6.8 -3.8 2.7 0.1 3.8 1.2 10.9 11.5 6.4 9.4 8.3 11.5 10.3 11.5 l2.5 0 -3.4 -4.7 c-18.3 -25.4 -18.1 -24.5 -7.1 -35.5 5.8 -5.8 7.2 -7.8 5.8 -7.8 -1.3 0 -6 4.4 -12.5 11.5 -9.2 10.1 -10.9 11.5 -13.7 11.5 l-3.3 0 0 -22 0 -22 -3.5 0 -3.5 0 0 34.5 0 34.5 3.5 0 3.5 0 0 -7.7z m70 -12.8 l0 -9.5 10 0 10 0 0 -3 0 -3 -10 0 -9.9 0 -0.3 -9.7 c-0.3 -9.7 -0.3 -9.8 -2.8 -9.8 -2.5 0 -2.5 0.1 -2.8 9.8 l-0.3 9.7 -9.4 0 -9.5 0 0 3 0 3 9.5 0 9.5 0 0 8.8 c0 4.9 0.3 9.2 0.7 9.5 0.3 0.4 1.7 0.7 3 0.7 2.2 0 2.3 -0.2 2.3 -9.5z m-93.7 -21 c3.4 -0.7 3.7 -1 3.7 -4.1 0 -3.3 -0.1 -3.4 -2.2 -2.3 -2.9 1.5 -7.7 5.9 -9 8.2 -0.9 1.7 -0.8 1.7 1.4 0.3 1.3 -0.8 4 -1.8 6.1 -2.1z"/>
  <path d="M161.3 250.9 c1.2 -10.1 6.8 -14.9 17.4 -14.9 9.8 0 14.8 4.6 16 15.1 l0.6 4.9 -17.3 0 -17.3 0 0.6 -5.1z"/>
  <path d="M350 274.8 c-6.5 -4.5 -7.5 -6.9 -7.5 -17.8 0 -10.9 1 -13.3 7.5 -17.7 4.8 -3.3 17.2 -3.3 22.1 0 6.2 4.2 7.9 7.9 7.9 17.6 0 9.9 -1.7 14.2 -7 17.9 -2.8 1.8 -4.6 2.2 -11.5 2.2 -6.9 0 -8.7 -0.4 -11.5 -2.2z"/>
  <path d="M296 151.5 l0 -5.5 -3.3 0 c-5.4 0 -6.7 -2.3 -6.7 -12.1 0 -9.6 -1.5 -13.4 -4.4 -11 -1.3 1.1 -1.6 3.4 -1.6 12.2 l0 10.9 -4.3 0 c-6.4 0 -7.7 -1.9 -7.7 -11.3 0 -8 -1.4 -12.7 -3.7 -12.7 -2.1 0 -3.3 4.5 -3.3 12.9 0 9.3 -1.3 11.1 -7.8 11.1 -3.8 0 -4.2 -0.2 -4.2 -2.5 l0 -2.6 -3.1 2.3 c-2.3 1.8 -4.7 2.4 -10.6 2.7 -8.7 0.4 -13.9 -0.9 -17.6 -4.3 l-2.6 -2.4 -3.3 2.4 c-4.4 3.3 -8.9 4.4 -18.3 4.4 -12.6 -0.1 -19.6 -4 -24.1 -13.5 -2.6 -5.6 -3.2 -14.2 -1.3 -20.9 1.4 -5.1 9.1 -12.8 14.5 -14.4 2.3 -0.6 7.9 -1.2 12.6 -1.2 7.1 0 9.2 0.4 13.6 2.6 5.4 2.7 10.2 7.8 10.2 10.9 0 1.2 0.5 1.5 1.8 1 7.9 -3.4 19.9 -2.9 25.7 1.1 l3.7 2.4 2.9 -2.4 c3.6 -3 10.6 -4.2 16.7 -2.8 2.8 0.6 5.5 0.7 7 0.1 6.1 -2.3 15.4 -0.2 18.8 4.4 l1.9 2.5 3.2 -2.9 c3.6 -3.1 8.9 -4.9 14.6 -4.9 14.6 0 22.3 9 20.3 23.7 -1.3 9.6 -6.6 13.5 -18.8 14.1 l-8.8 0.4 0 3.8 c0 4.8 -2.4 7 -7.8 7 l-4.2 0 0 -5.5z m-92.8 -22 c1.3 -0.8 3.7 -1.5 5.4 -1.5 3 0 3.2 -0.2 3.9 -4.6 0.3 -2.6 0.9 -5.3 1.2 -6 0.4 -1 -0.4 -1.4 -2.9 -1.4 -2.2 0 -4.2 -0.7 -5.2 -1.9 -1 -1.1 -3.9 -2.9 -6.6 -4 -5.4 -2.3 -7.9 -1.9 -13.6 2.4 -6.7 5.1 -6.6 12 0.2 17.1 6.1 4.7 10.9 4.7 17.6 -0.1z m34.5 1.1 c2.4 -2.1 2.6 -2.7 1.6 -4.9 -1.7 -3.8 -6.3 -5 -10.2 -2.6 -3.8 2.3 -4 5.1 -0.5 7.8 3.5 2.7 5.7 2.6 9.1 -0.3z m82 0.2 c2.7 -2.6 2.9 -4.9 0.6 -7 -2.8 -2.4 -4.6 -2.6 -7.6 -1.1 -4.2 2.1 -6.3 8.3 -2.8 8.3 1.1 0 2.3 0.5 2.6 1 1.1 1.7 4.8 1.1 7.2 -1.2z"/>
  <path d="M340.4 144.6 c-1.7 -1.3 -1.9 -3.1 -2.4 -18.8 l-0.5 -17.3 -8.5 -0.5 c-7.8 -0.5 -8.6 -0.7 -9.7 -3 -0.7 -1.4 -1.3 -4 -1.3 -5.7 l0 -3.3 28.3 0 c22.9 0 28.7 0.3 30.3 1.4 1.7 1.3 2 3.1 2.4 16.3 l0.5 14.8 6.9 -15.3 c3.8 -8.4 7.7 -15.7 8.7 -16.3 3 -1.6 10.4 -1.1 12.2 0.9 0.8 0.9 3.1 5.1 5 9.2 1.9 4.1 5.3 11.4 7.5 16.2 l4 8.7 4.4 0.3 4.3 0.3 0.3 4.3 c0.4 4.7 -1 7.2 -3.9 7.2 -1.1 0 -1.9 0.5 -1.9 1 0 1.3 -8.3 1.3 -11.3 -0.1 -1.3 -0.6 -3.4 -3.1 -4.5 -5.5 l-2.2 -4.4 -8 0 -8 0 -2.2 4.4 c-1.1 2.4 -3.2 4.9 -4.5 5.5 -2.7 1.2 -15.2 1.5 -17 0.3 -2.5 -1.6 -3.3 -6.9 -3.3 -21.8 l0 -15.4 -7.5 0 -7.5 0 0 19 0 19 -4.3 0 c-2.4 0 -5.2 -0.6 -6.3 -1.4z m62.4 -24.1 c-0.6 -1.4 -1.4 -2.5 -1.8 -2.5 -0.4 0 -1.2 1.1 -1.8 2.5 -1.1 2.4 -1 2.5 1.8 2.5 2.8 0 2.9 -0.1 1.8 -2.5z"/>
 </g>
 <g fill="#6a757d">
  <path d="M273 495 c-42 -5.1 -83.8 -22.6 -117.1 -49.1 -4.8 -3.8 -9 -6.9 -9.4 -6.9 -0.9 0 -12.2 8.9 -21.1 16.7 l-6.1 5.3 -8.6 -9 c-26.3 -27.6 -43.1 -53 -56.6 -85.4 -3.7 -8.9 -9 -24.3 -10.5 -30.8 l-0.6 -2.8 6.2 0 6.3 0 2.3 7.8 c5.4 17.8 16.4 41.7 27.3 59.1 6.7 10.5 18.6 26.1 28.2 36.6 l6.4 6.9 7.1 -5.4 7.1 -5.4 -6.7 -7 c-8.4 -8.9 -18.2 -21.5 -25.6 -32.8 -10.2 -15.7 -25.6 -50.2 -25.6 -57.4 0 -2.3 0.2 -2.4 7.8 -2.4 l7.9 0 3.7 9.9 c7.3 19.1 20 41.6 32.1 56.6 7.3 9.1 19.6 22.5 20.6 22.5 0.4 0 3.7 -1.8 7.1 -4.1 8.7 -5.7 36.2 -19 48.3 -23.5 5.5 -2 17.3 -5.5 26.3 -7.7 l16.2 -4.1 0 -8.2 c0 -8.9 1.6 -12.6 7.3 -16.8 2.7 -2 4.2 -2.1 36.7 -2.4 l33.9 -0.3 0.3 13.8 0.3 13.8 17 0.6 c15.3 0.6 18.3 1 30 4.2 28.2 7.7 45.5 15.1 70.4 30 l8.5 5.1 7.8 -8.3 c8.7 -9.2 17 -19.7 24.8 -31.6 6 -9.2 17.9 -33 21.2 -42.5 l2.3 -6.5 7.8 -0.2 7.7 -0.1 0 3.4 c0 4.6 -7.7 24 -15.2 38.4 -9.6 18.6 -19.7 33 -35 50.2 l-6.9 7.7 3 2.2 c2.5 1.9 4.3 2.2 9.8 2.2 l6.8 -0.1 8.3 -9.9 c20.3 -23.8 37.4 -54.5 47.2 -84.5 l3.2 -9.8 5.9 0 c4.7 0 5.9 0.3 5.9 1.5 0 2.8 -8.8 28.1 -13.5 38.6 -12.4 27.9 -30.1 54 -52.8 77.6 l-9.9 10.2 -7.1 -6.2 c-7.9 -6.8 -19.2 -15.7 -20.1 -15.7 -0.3 0 -4.3 3 -8.8 6.7 -29.7 23.9 -66.3 40.5 -104.8 47.3 -9.9 1.8 -17.2 2.3 -35 2.6 -12.4 0.1 -25.9 -0.2 -30 -0.6z m58.5 -13 c37.3 -6.4 72 -21.4 99.8 -43.2 l5.8 -4.6 -10.7 -6.2 c-21.3 -12.5 -47.5 -22.9 -71.6 -28.4 l-2.8 -0.6 0 25 c0 27.6 -0.3 29.6 -5.9 34.3 l-3.3 2.7 -34.9 0 -34.9 0 0 -13.5 0 -13.5 -13.5 0 -13.5 0 0 -17.5 c0 -9.6 -0.1 -17.5 -0.3 -17.5 -2.4 0 -28.5 8 -37.4 11.5 -16 6.3 -44.1 20.7 -45.8 23.6 -1.1 1.7 21 16.9 36.5 25.2 17.6 9.4 42.5 18.3 60.5 21.7 23.3 4.4 50.3 4.8 72 1z m3.5 -37 c1.9 -1.9 2 -3.1 1.8 -24.8 l-0.3 -22.7 -6 0 -6 0 -0.3 18.3 -0.2 18.2 -18 0 -18 0 0 6.5 0 6.5 22.5 0 c21.2 0 22.6 -0.1 24.5 -2z m-62 -44 l0 -18 18.5 0 18.5 0 0 -6.5 0 -6.5 -21.9 0 c-12.1 0 -22.7 0.3 -23.6 0.6 -3.8 1.5 -4.5 5.5 -4.5 26.7 0 11.2 0.3 20.7 0.7 21 0.3 0.4 3.3 0.7 6.5 0.7 l5.8 0 0 -18z m36.8 7.3 l-0.3 -10.8 -10.7 -0.3 -10.8 -0.3 0 11.1 0 11 11 0 11.1 0 -0.3 -10.7z"/>
  <path d="M53.2 167.9 c2.8 -8 17.4 -35.6 24.5 -46.4 24.1 -36.4 56.6 -66.6 94.5 -87.6 50.9 -28.3 112.8 -38.7 171 -28.9 72.4 12.3 136 53.9 177.3 116 6.8 10.2 23.3 41.7 25 47.8 0.7 2.2 0.5 2.3 -6 2 l-6.6 -0.3 -4.3 -9.5 c-11.8 -26.2 -34.1 -57.1 -55.7 -77.4 -37.7 -35.5 -82.2 -57.9 -133.8 -67.3 -13.2 -2.4 -17 -2.7 -39.1 -2.7 -26.8 -0.1 -35.5 0.9 -59 6.6 -73.1 17.7 -135.9 68.6 -169.6 137.6 l-6.5 13.2 -6.4 0 -6.4 0 1.1 -3.1z"/>
  <path d="M86 169.5 c0 -0.9 1.9 -5.2 4.1 -9.8 34.3 -68.1 100.9 -115.4 176.2 -125.2 15.1 -1.9 50.3 -2 64.7 -0.1 67.9 9.1 125.6 44.9 163 101.2 9.6 14.5 18 30.1 18 33.3 0 2 -0.5 2.1 -8.4 2.1 l-8.4 0 -4.2 -7.7 c-24.7 -45.2 -64.7 -80.8 -112.3 -99.9 -30.5 -12.3 -64.3 -17.9 -93 -15.5 -65.3 5.4 -123 37.5 -162.4 90.3 -4.7 6.3 -12.5 18.8 -18.5 29.7 -1.7 3.1 -1.7 3.1 -10.3 3.1 -6.9 0 -8.5 -0.3 -8.5 -1.5z"/>
 </g>
 <g fill="#ffffff">
  <path d="M273.5 486.5 c-14.8 -1.8 -21 -3.1 -34 -6.7 -19.8 -5.5 -42.2 -15.7 -60.5 -27.6 -9.5 -6.1 -24 -17.1 -24 -18.1 0 -1 17.3 -11.3 28.6 -17 17.9 -9 45.2 -18.5 61.7 -21.5 l3.7 -0.7 0 18.1 0 18 13.5 0 13.5 0 0 13.5 0 13.5 31.9 0 31.9 0 3.3 -2.7 c5.6 -4.7 5.9 -6.6 5.9 -34.8 l0 -25.7 3.3 0.7 c17 3.4 40.2 11.1 57.2 19 11.3 5.2 33.5 18.1 33.5 19.5 0 0.5 -3.7 3.8 -8.2 7.3 -29.2 22.7 -62.2 37.1 -100.3 43.8 -15.6 2.7 -45.4 3.4 -61 1.4z"/>
  <path d="M285 440.5 l0 -9.5 18 0 18 0 0.2 -18.2 0.3 -18.3 9 0 9 0 0.3 25.7 c0.2 24.7 0.1 25.9 -1.8 27.8 -1.9 1.9 -3.3 2 -27.5 2 l-25.5 0 0 -9.5z"/>
  <path d="M111.1 440.2 c-21.8 -23.7 -37.6 -48.5 -49.4 -77.2 -3.5 -8.4 -9.7 -27.1 -9.7 -29 0 -0.6 5.2 -1 13.3 -1 l13.2 0 3.5 10.2 c1.9 5.6 6.7 16.8 10.6 24.8 10.8 22 23.2 39.7 39.6 56.6 l7.9 8.2 -10.1 8.1 c-5.5 4.4 -10.2 8.1 -10.5 8.1 -0.2 0 -4 -4 -8.4 -8.8z"/>
  <path d="M471.5 443.7 c-3.3 -2.9 -7.6 -6.4 -9.5 -7.8 l-3.4 -2.6 6.8 -7.4 c17.5 -18.8 30.2 -37.2 40.5 -58.3 5.6 -11.5 11.5 -25.9 13.7 -33.3 0.2 -1 3.9 -1.3 13.8 -1.3 l13.4 0 -1 3.8 c-7.9 29.1 -25.8 63.8 -45.7 88.5 -7.2 8.8 -21 23.7 -22 23.6 -0.3 0 -3.3 -2.4 -6.6 -5.2z m9.5 0.8 c1.5 -1.8 -0.2 -4.5 -3 -4.5 -1 0 -2.3 0.7 -3 1.5 -1.5 1.8 0.2 4.5 3 4.5 1 0 2.3 -0.7 3 -1.5z"/>
  <path d="M141.8 422.2 c-21.7 -22.4 -38.3 -47.8 -48.6 -74.5 -2.2 -5.6 -4.3 -11.2 -4.7 -12.4 l-0.6 -2.3 211.5 0 211.5 0 -3 8.3 c-1.6 4.5 -6.1 14.5 -9.8 22.2 -10.6 21.6 -22.1 38.1 -38.2 55 l-9 9.4 -6.7 -4.3 c-23.7 -15.3 -46.3 -25.2 -75.7 -33.3 -11.7 -3.2 -14.7 -3.6 -30 -4.2 l-17 -0.6 -0.3 -13.8 -0.3 -13.8 -30.9 0.3 c-29.5 0.3 -31 0.4 -33.7 2.4 -5.7 4.2 -7.3 7.9 -7.3 16.8 l0 8.2 -16.2 4.1 c-29 7.3 -54.9 18.5 -79.9 34.6 l-5.6 3.6 -5.5 -5.7z"/>
  <path d="M257.7 421.3 c-0.4 -0.3 -0.7 -11.2 -0.7 -24 0 -24.4 0.6 -28.2 4.5 -29.7 0.9 -0.3 12.9 -0.6 26.6 -0.6 l24.9 0 0 9.5 0 9.5 -18.5 0 -18.5 0 0 18 0 18 -8.8 0 c-4.9 0 -9.2 -0.3 -9.5 -0.7z"/>
  <path d="M285 408 l0 -14.1 13.8 0.3 13.7 0.3 0.3 13.8 0.3 13.7 -14.1 0 -14 0 0 -14z"/>
  <path d="M175 284.9 c-6.7 -1 -9.5 -2.4 -14.4 -6.9 -6.5 -6 -8.9 -12.4 -8.4 -22.5 0.9 -16.3 11 -26.6 26 -26.6 15 0 24.8 9.9 25.6 25.9 l0.4 7.2 -19.7 0 -19.7 0 0.7 2.8 c1.4 5.6 8.1 10.2 14.7 10.2 3.1 0 9.3 -2.5 13 -5.2 1.5 -1.1 2.3 -0.7 5.3 2.2 3.3 3.2 3.4 3.4 1.7 5.3 -5 5.6 -16.2 9 -25.2 7.6z m16 -34.8 c-1.3 -4.7 -3 -7.1 -6.3 -9.1 -7.6 -4.7 -17 -0.3 -19.7 9.1 l-0.9 2.9 13.9 0 13.9 0 -0.9 -2.9z"/>
  <path d="M355.9 284.9 c-13.1 -2 -23.9 -14.6 -23.9 -27.8 0 -4.9 2.7 -12.8 5.7 -16.9 9.8 -13.1 29.1 -15.2 42.9 -4.7 1.8 1.4 4.6 5.3 6.3 8.6 10.6 21.1 -7.3 44.6 -31 40.8z m14.1 -13.1 c4.7 -3.2 7 -8.2 7 -14.9 0 -16.7 -19.4 -23.1 -29.4 -9.6 -1.7 2.2 -2.1 4.3 -2.1 9.7 0 5.4 0.4 7.5 2.1 9.7 3.7 4.9 8.2 7.3 13.9 7.3 3.8 0 6.1 -0.6 8.5 -2.2z"/>
  <path d="M222.3 283.4 c-6.2 -3.1 -6.8 -5 -7.1 -24.6 l-0.4 -17.8 -3.4 0 -3.4 0 0 -5.5 0 -5.5 3.5 0 3.5 0 0 -7.5 0 -7.5 6.5 0 6.5 0 0 7.5 0 7.5 7 0 7 0 0 5.5 0 5.5 -7 0 -7 0 0 15 c0 14.9 0 15 2.5 16.6 2.4 1.6 5.4 1.5 9.8 -0.1 1.5 -0.6 1.7 0 1.7 4.8 0 5.3 -0.1 5.5 -3.1 6.6 -4.6 1.6 -12.9 1.3 -16.6 -0.5z"/>
  <path d="M265.2 283.3 c-0.7 -1.4 -12.7 -38 -16.6 -51 -0.7 -2.2 -0.5 -2.3 5.7 -2.3 l6.4 0 5.4 18.2 5.3 18.2 6.1 -18.5 6 -18.4 4.3 -0.3 c2.4 -0.2 4.9 0.1 5.6 0.7 0.7 0.6 3.7 8.7 6.7 18.1 3 9.3 5.6 17 5.9 17 0.4 0 1.6 -3.5 2.9 -7.7 1.2 -4.3 3.6 -12.2 5.2 -17.5 l3 -9.8 5.9 0 c3.3 0 6 0.4 6 1 0 0.5 -3.8 12.6 -8.5 27 -4.7 14.4 -8.5 26.3 -8.5 26.6 0 0.3 -2.6 0.4 -5.7 0.2 l-5.7 -0.3 -5.6 -17.2 c-3 -9.4 -5.8 -17.4 -6.2 -17.8 -0.3 -0.3 -3.3 7.4 -6.5 17.2 l-6 17.8 -5.1 0.3 c-4.1 0.2 -5.3 -0.1 -6 -1.5z"/>
  <path d="M77.7 283.3 c-0.4 -0.3 -0.7 -16.5 -0.7 -36 l0 -35.3 6.3 0 6.2 0 18.5 24 18.5 24 0.3 -24 0.2 -24 6.5 0 6.5 0 0 36 0 36 -5.3 0 -5.4 0 -19.4 -25.1 -19.4 -25 -0.3 25 -0.2 25.1 -5.9 0 c-3.1 0 -6.1 -0.3 -6.4 -0.7z"/>
  <path d="M399.5 282.7 c-0.3 -0.7 -0.4 -12.7 -0.3 -26.7 l0.3 -25.5 6.3 -0.3 6.2 -0.3 0 5.2 0 5.3 3.6 -4.2 c4.2 -5 8.1 -7.2 12.4 -7.2 l3 0 0 6.4 0 6.4 -3.7 0.7 c-5.6 1 -10.1 4.2 -12.5 8.9 -1.9 3.5 -2.3 6.2 -2.6 18.4 l-0.4 14.2 -5.9 0 c-3.9 0 -6.1 -0.4 -6.4 -1.3z"/>
  <path d="M438 246.5 l0 -37.5 6.5 0 6.5 0 0.2 21.9 0.3 22 10.5 -11.4 10.5 -11.5 8 0 8 0 -10.9 10.9 -10.9 10.9 9.3 13.3 c5.1 7.4 10.2 14.6 11.2 16.2 l1.9 2.7 -7.4 0 -7.4 0 -8 -11.5 -8 -11.4 -3.6 3.7 c-3.6 3.7 -3.7 4 -3.7 11.5 l0 7.7 -6.5 0 -6.5 0 0 -37.5z"/>
  <path d="M509.7 272.3 c-0.4 -0.3 -0.7 -4.6 -0.7 -9.5 l0 -8.8 -9.5 0 -9.5 0 0 -6 0 -6 9.5 0 9.4 0 0.3 -9.7 0.3 -9.8 5.5 0 5.5 0 0.3 9.8 0.3 9.7 9.9 0 10 0 0 6 0 6 -10 0 -10 0 0 9.5 0 9.5 -5.3 0 c-3 0 -5.7 -0.3 -6 -0.7z"/>
  <path d="M61.7 169.3 c0.3 -1 3.4 -7.6 6.9 -14.8 33.1 -68.3 96.4 -119.7 169.4 -137.3 24 -5.9 31.9 -6.7 62 -6.6 25.4 0 28.6 0.2 42.1 2.7 77.8 14.3 139.9 58 180.3 126.9 4.7 8.1 14.6 28.6 14.6 30.3 0 0.3 -6.2 0.5 -13.7 0.5 l-13.8 0 -4.8 -9.5 c-2.7 -5.2 -8.8 -15.5 -13.7 -22.7 -37.4 -56.5 -95 -92.3 -163 -101.4 -14.1 -1.8 -43.9 -1.8 -58.7 0.1 -75.3 9.8 -141.9 57.1 -176.2 125.3 l-4.1 8.2 -14 0 c-12.8 0 -13.9 -0.1 -13.3 -1.7z"/>
  <path d="M99.7 169.3 c0.4 -1 2.7 -5.4 5.1 -9.8 26.8 -48.7 71.5 -86 124 -103.5 43.9 -14.6 88.1 -15.6 131.9 -2.9 56.8 16.4 105.5 55.7 133.7 108 2.5 4.7 4.6 8.9 4.6 9.2 0 0.4 -90 0.7 -200 0.7 -189.3 0 -199.9 -0.1 -199.3 -1.7z m203.5 -17 c1.6 -1.4 1.8 -3.3 1.8 -13.9 0 -6.7 0.4 -13.4 1 -14.8 2.3 -6 13.3 -7.3 17.7 -2.1 3.1 3.6 2.9 7.8 -0.5 11.6 -2.5 2.8 -3.5 3.2 -7.6 3.1 -2.7 0 -5.3 -0.5 -5.9 -1.1 -1.8 -1.8 -2.7 -1.3 -2.7 1.6 0 5.5 4.8 7.5 14 5.6 4.5 -0.8 10.5 -7.1 11.4 -11.6 2.2 -11.9 -9.4 -21.9 -21.5 -18.7 -2.8 0.8 -5.7 2.6 -8.1 5.1 l-3.8 4 0 16.4 c0 17.2 0.3 18.3 4.2 14.8z m-97.6 -11.6 c4.1 -2.1 9.6 -7.6 8.8 -8.8 -1 -1.7 -5.2 -0.9 -11 2.2 -5 2.6 -6.6 3 -10.7 2.5 -5.8 -0.6 -11.2 -3.8 -13.8 -8 -2.7 -4.4 -2.5 -11.4 0.4 -15.6 2.7 -4.1 9.8 -8 14.6 -8 4 0 12.8 3.8 15 6.3 1.5 1.9 5.6 2.3 6.6 0.7 1.2 -1.9 -4.3 -7.7 -9.7 -10.4 -9.9 -4.9 -21.3 -3.2 -29 4.5 -6.9 6.9 -8.5 14.5 -4.7 22.9 2.7 6 5.4 8.8 11.4 11.7 4.2 2 6.1 2.3 12 2 3.9 -0.2 8.4 -1.1 10.1 -2z m34.7 0.9 c1.8 -0.7 4.7 -3 6.5 -5 2.7 -3.1 3.2 -4.4 3.2 -8.9 0 -8.4 -4.4 -13.9 -12.7 -15.8 -7.4 -1.7 -15.1 1.2 -19.6 7.2 -2.8 3.8 -2.7 11.5 0.1 16.1 4.1 6.7 14.7 9.7 22.5 6.4z m15.9 -0.3 c1.4 -1.3 1.8 -3.1 1.8 -9.4 0 -4.3 0.4 -8.9 0.9 -10.2 1.8 -4.7 8.8 -4.8 10.9 -0.2 0.7 1.4 1.2 6 1.2 10.2 0 5.7 0.4 8.1 1.7 9.5 3.5 3.9 4.3 2.4 4.3 -8.9 0 -11.6 1.1 -14.3 5.7 -14.3 4.7 0 6.3 3.1 6.3 12.7 0 6.6 0.4 9.1 1.7 10.5 3.6 4 4.3 2.5 4.3 -10.1 0 -11.4 -0.1 -12.1 -2.6 -15 -1.4 -1.7 -4.2 -3.6 -6.3 -4.2 -3.2 -1 -4.5 -0.8 -8.2 0.8 -4.1 1.8 -4.7 1.9 -6.8 0.5 -3.3 -2.2 -10.6 -2 -13.9 0.5 -4.4 3.3 -5.2 5.9 -5.2 18.1 0 11.7 0.5 12.9 4.2 9.5z m91.8 -17.3 l0 -19 8.3 0 c8.6 0 10.7 -0.8 10.7 -4.2 0 -1.7 -1.5 -1.8 -22.9 -1.8 -22.3 0 -22.9 0.1 -22.4 2 0.9 3.2 2.5 3.9 10.8 4.2 l8 0.3 0.5 17.3 c0.5 15.7 0.7 17.5 2.4 18.8 4.4 3.2 4.6 2.5 4.6 -17.6z m28 -1 c0 -18.7 -0.1 -20.1 -2 -22 -1.1 -1.1 -2.7 -2 -3.5 -2 -1.3 0 -1.5 2.7 -1.5 18.4 0 17.9 0.7 23.2 3.3 24.8 3.5 2.2 3.7 1.2 3.7 -19.2z m7.3 18.9 c1.3 -0.6 3.4 -3.1 4.5 -5.5 l2.2 -4.4 11 0 11 0 2.2 4.4 c2 4.2 5.1 6.6 8.3 6.6 0.8 0 1.5 -0.2 1.5 -0.4 0 -0.2 -2.2 -5.3 -4.9 -11.3 -14.6 -32.3 -15.3 -33.3 -19.9 -31.7 -2.1 0.8 -3.8 3.6 -9.5 15.9 -13.9 30.3 -12.8 27.5 -10.7 27.5 1.1 0 3 -0.5 4.3 -1.1z m45.7 -2.4 c1.8 -2.1 0.5 -4.5 -2.5 -4.5 -1.4 0 -2.8 0.7 -3.1 1.5 -0.7 1.7 1.2 4.5 3.1 4.5 0.7 0 1.8 -0.7 2.5 -1.5z"/>
  <path d="M228.3 135.6 c-7.2 -3.2 -8.3 -11.8 -2 -15.6 8.5 -5.2 19.8 1.3 17 9.6 -1.8 5.5 -9.3 8.4 -15 6z"/>
  <path d="M393 125.5 c0 -0.3 1.8 -4.4 3.9 -9.3 l4 -8.7 4 8.6 c2.3 4.8 4.1 9 4.1 9.3 0 0.3 -3.6 0.6 -8 0.6 -4.4 0 -8 -0.2 -8 -0.5z"/>
 </g>
</svg>