<?xml version="1.0" encoding="utf-8"?>
<!DOCTYPE svg PUBLIC "-//W3C//DTD SVG 1.0//EN" "http://www.w3.org/TR/2001/REC-SVG-20010904/DTD/svg10.dtd">
<svg version="1.0" xmlns="http://www.w3.org/2000/svg" width="596px" height="497px" viewBox="0 0 596 497" preserveAspectRatio="xMidYMid meet">
 <g fill="#d02030">
  <path d="M62.8 336.2 c-16.9 -0.2 -20.8 -0.5 -20.8 -1.6 0 -1.1 -2.7 -1.5 -12.2 -1.8 -13.8 -0.4 -18.2 -1.9 -23.3 -8 -5.7 -6.7 -5.5 -3.9 -5.5 -81.3 l0 -71.5 24.9 0 c24 0 24.9 -0.1 25.4 -2 0.5 -2 1.4 -2 246.7 -2 245.3 0 246.2 0 246.7 2 0.5 1.9 1.4 2 17.2 2 l16.7 0 5.4 3.2 c4.2 2.6 6.1 4.5 8.2 8.7 l2.8 5.3 0 71.9 0 71.9 -20.5 0 c-17.6 0 -20.5 0.2 -20.5 1.5 0 1.3 -2.9 1.5 -20.2 1.5 -11.2 0 -117 0.1 -235.3 0.3 -118.2 0.1 -224.3 0.1 -235.7 -0.1z m384.1 -35.1 c4.5 -3.1 6.1 -6.5 17.1 -34.7 10 -25.8 10.7 -27.9 8.8 -28.2 -1.2 -0.2 -2.4 0.1 -2.7 0.6 -0.3 0.6 -3.5 9.4 -7.1 19.6 l-6.5 18.6 -3.6 0 -3.5 0 -6.4 -16.7 c-7.9 -21 -8.6 -22.3 -11 -22.3 -1.1 0 -2 0.3 -2 0.8 0 0.4 4.5 11.5 10 24.6 5.5 13.2 10 25 10 26.3 0 3.6 -2.8 8.2 -5.3 8.8 -1.2 0.2 -4.2 0.6 -6.6 0.7 -5.4 0.4 -6.5 2.4 -1.9 3.6 4 1.2 7.5 0.6 10.7 -1.7z m-324 -14.7 c8.9 -2.6 16.6 -13 14.5 -19.7 -2.2 -7.4 -9.3 -12 -25.1 -16.4 -12.6 -3.5 -14.3 -5.1 -14.3 -13.3 0 -5.1 0.4 -6.5 2.4 -8.5 4.2 -4.2 19.3 -4.3 27.4 -0.1 2.2 1.1 3.2 1.2 4.1 0.3 1.8 -1.8 1.4 -2.3 -5.1 -5.3 -15 -6.7 -30.6 -1.7 -34.8 11.2 -1 3 -0.9 4.3 0.5 8.1 2.2 5.7 7.6 9.7 16.9 12.3 21 6.1 21.6 6.5 21.6 15.6 0 5.7 -0.2 6.4 -3.1 8.8 -2.9 2.4 -3.7 2.6 -13.4 2.6 -9.4 0 -10.8 -0.2 -15.8 -2.9 -4.5 -2.4 -5.8 -2.7 -6.7 -1.6 -1.4 1.6 2.4 4.5 9.6 7.4 8.8 3.4 13.8 3.8 21.3 1.5z m64.6 -1.9 c2.5 -1.4 4.5 -3 4.5 -3.5 0 -1.3 -0.1 -1.3 -4 0.6 -1.8 0.9 -6.3 1.9 -10 2.2 -12.3 0.8 -20 -5.2 -20 -15.8 l0 -4 20 0 20.1 0 -0.7 -3.7 c-0.7 -4.5 -3.7 -11.2 -6.6 -14.8 -2.9 -3.7 -11 -7.5 -16 -7.5 -13.2 0 -26.1 16.5 -22.8 29.2 4.6 17.2 21.6 25.5 35.5 17.3z m59 0 c2.5 -1.4 4.5 -2.9 4.5 -3.4 0 -1.8 -1.3 -1.8 -4.8 0 -5.5 2.8 -16.8 2.6 -21.2 -0.3 -6.2 -4.2 -7.5 -7 -7.8 -16.7 -0.3 -7.5 -0.1 -9.5 1.7 -13 3.2 -6.2 7 -8.1 16.4 -8.1 5.1 0 8.8 0.5 10.8 1.5 2.9 1.5 4.9 1.3 4.9 -0.5 0 -0.5 -2.4 -2 -5.4 -3.5 -9.7 -4.8 -19.5 -2.7 -27.7 5.7 -3.6 3.7 -7.9 12.8 -7.9 16.7 0 3.9 3.4 11.3 7.3 15.7 8.3 9.5 19.4 11.7 29.2 5.9z m41.8 2.2 c1.8 -0.8 3.8 -2.1 4.6 -3 1.2 -1.6 0.8 -1.7 -5.3 -1.7 -12.4 0 -13 -1 -13.6 -25 l-0.5 -18.5 -3.2 -0.3 -3.3 -0.3 0 16.9 c0 21.9 1.8 27.4 10.4 31.3 4.9 2.2 6.7 2.3 10.9 0.6z m124.2 -0.1 c1.9 -0.8 3.5 -2.2 3.5 -3 0 -1.3 -1.2 -1.6 -5.8 -1.6 -3.2 0 -6.3 -0.5 -7 -1.2 -0.8 -0.8 -1.2 -6.5 -1.2 -19 l0 -17.8 7 0 7 0 0 -3 0 -3 -7 0 -7 0 0 -7 0 -7 -3.5 0 -3.5 0 0 7 0 7 -3.5 0 c-3.2 0 -3.5 0.2 -3.5 3 0 2.8 0.3 3 3.5 3 l3.5 0 0 16.6 c0 13.1 0.3 17.3 1.6 19.9 1.6 3.5 4.5 5.9 7.9 6.8 3.4 0.8 4.5 0.7 8 -0.7z m-102.5 -24.2 l0 -24.5 -3.2 0.3 -3.3 0.3 -0.5 18.6 c-0.4 16.6 -0.7 18.9 -2.4 20.8 -1.9 2.1 -1.9 2.1 0.2 2.1 1.8 0 2.2 0.6 2.2 3.5 0 3.3 0.2 3.5 3.5 3.5 l3.5 0 0 -24.6z m25 12.4 c0 -13.1 1 -18.6 4.2 -23 l1.9 -2.8 -3 0 c-3.1 0 -3.1 0 -3.1 -5.6 l0 -5.5 -3.2 0.3 -3.3 0.3 -0.3 24.3 -0.2 24.2 3.5 0 3.5 0 0 -12.2z m39 -12.4 l0 -24.5 -3.2 0.3 -3.3 0.3 -0.3 24.3 -0.2 24.2 3.5 0 3.5 0 0 -24.6z m140 4.1 l0 -9.5 9.5 0 9.5 0 0 -3 0 -3 -9.5 0 -9.4 0 -0.3 -9.7 -0.3 -9.8 -3 0 -3 0 -0.3 9.8 -0.3 9.7 -9.4 0 -9.5 0 0 3 0 3 9.5 0 9.5 0 0 9.5 0 9.5 3.5 0 3.5 0 0 -9.5z m-164.2 -20.9 c3.9 -1 4.2 -1.3 4.2 -4.3 l0 -3.3 -3.9 2 c-4.3 2.1 -10.3 9.2 -6.5 7.5 1 -0.4 3.8 -1.3 6.2 -1.9z m24.7 -24.1 c0 -2.7 -0.3 -3 -3.7 -3.3 -3.8 -0.3 -3.8 -0.3 -3.8 3.3 0 3.6 0 3.6 3.8 3.3 3.4 -0.3 3.7 -0.6 3.7 -3.3z"/>
  <path d="M158 257.5 c0 -5.2 1.6 -8.9 5.5 -12.5 2.3 -2.1 3.8 -2.5 10.3 -2.8 6.2 -0.2 8.3 0.1 10.8 1.6 3.9 2.5 6.4 7.8 6.4 13.6 l0 4.6 -16.5 0 -16.5 0 0 -4.5z"/>
  <path d="M294 151.5 c0 -5.4 -0.1 -5.5 -2.8 -5.5 -4.9 0 -6.2 -2.6 -6.2 -12.1 0 -9.6 -1.5 -13.4 -4.4 -11 -1.3 1.1 -1.6 3.4 -1.6 12.2 l0 10.9 -4.2 0 c-7.3 0 -8.8 -2.5 -8.8 -13.8 0 -6.1 -0.4 -8.3 -1.6 -9.3 -2.9 -2.4 -4.4 1.4 -4.4 11.1 0 10.2 -1.2 12 -7.8 12 -3.8 0 -4.2 -0.2 -4.2 -2.5 l0 -2.6 -3.1 2.3 c-2.7 2 -4.2 2.3 -12.9 2.3 -9.4 0 -10 -0.1 -14.2 -3.1 l-4.4 -3.1 -2.8 2.2 c-4 3.2 -9.2 4.5 -18.2 4.5 -9.4 0 -16.1 -2.7 -21.1 -8.3 -3.9 -4.4 -5.3 -9.1 -5.3 -17.5 0 -7.3 1.9 -12.4 6.3 -17.1 5.2 -5.5 9.8 -7.1 20.8 -7.1 8.3 0 10.2 0.3 14.7 2.6 5.4 2.7 10.2 7.8 10.2 10.7 0 1 0.1 1.7 0.3 1.7 0.1 0 2 -0.7 4.2 -1.5 7.7 -2.8 19.8 -1.3 24.5 3 1.8 1.7 2.1 1.6 5 -0.8 3.7 -3.1 8.5 -4.2 14.8 -3.3 5.5 0.8 5.2 0.8 12.3 0 6.9 -0.8 12 0.7 15.2 4.5 l2.3 2.7 2.7 -2.7 c3.2 -3.3 8.2 -4.9 15.5 -4.9 5.3 0 5.3 0 3.8 -2.2 -0.9 -1.2 -1.6 -3.9 -1.6 -6 l0 -3.8 28.3 0 c22.9 0 28.7 0.3 30.3 1.4 1.7 1.3 2 3.1 2.4 16.1 l0.5 14.7 5.9 -13.3 c8.3 -18.6 8.5 -18.9 15 -18.9 6.7 0 7.2 0.5 13.4 14.5 9.4 21 9.1 20.5 12.4 20.5 5.1 0 6.8 1.6 6.8 6.3 0 4.6 -1.3 6.7 -4.2 6.7 -1 0 -1.8 0.5 -1.8 1 0 1.1 -5.2 1.3 -9.9 0.4 -2.6 -0.5 -3.7 -1.7 -5.7 -5.5 l-2.4 -4.9 -8.4 0 -8.4 0 -1.2 3.5 c-1.9 5.7 -5.1 7.5 -13.6 7.5 -11.4 0 -11.4 -0.1 -11.4 -21 l0 -17.1 -7.7 0.3 -7.8 0.3 -0.3 18.8 -0.2 18.7 -4 0 c-2.7 0 -4.7 -0.7 -6 -2 -1.8 -1.8 -2 -3.3 -2 -19 l0 -17 -8.2 0.1 c-6.7 0.1 -7.7 0.3 -5.2 1 1.8 0.5 4.8 2.7 6.8 4.9 3.6 4 3.6 4.1 3.6 12.6 0 7 -0.4 9.3 -2 12 -3.1 4.9 -9.1 7.4 -17.8 7.4 l-7.2 0 0 3.3 c0 5.5 -2.3 7.7 -8.1 7.7 l-4.9 0 0 -5.5z m-93.6 -21 c2.1 -1.4 5.1 -2.5 7 -2.5 3.2 0 3.4 -0.2 3.9 -4.2 0.2 -2.4 0.8 -5.1 1.2 -6 0.6 -1.5 0.2 -1.8 -2.5 -1.8 -1.8 0 -4.5 -1 -6.4 -2.5 -1.8 -1.3 -4.9 -3.2 -7 -4 -3.6 -1.5 -4 -1.5 -8.5 0.7 -4.6 2.3 -9.1 7.6 -9.1 10.8 0 2.8 4.2 8.2 8 10.1 4.7 2.6 9 2.4 13.4 -0.6z m36 0 c3.3 -3.1 3.3 -3.8 -0.5 -6.9 -3.7 -3.1 -3.6 -3.1 -7.6 -0.6 -4 2.4 -4.2 5.1 -0.7 7.9 3.5 2.7 5.5 2.6 8.8 -0.4z m82 0.4 c3.1 -2.4 3.3 -3.9 0.9 -6.7 -3.1 -3.6 -6 -3.7 -9.3 -0.3 -3.5 3.4 -4 7.1 -1.1 7.1 1.1 0 2.3 0.5 2.6 1 1 1.6 4 1.1 6.9 -1.1z m83.6 -9.5 c0 -0.3 -0.5 -1.5 -1.1 -2.6 -0.9 -1.7 -1.3 -1.8 -2 -0.7 -1.5 2.3 -1 3.9 1.1 3.9 1.1 0 2 -0.3 2 -0.6z"/>
 </g>
 <g fill="#6a757d">
  <path d="M272.5 494.8 c-41.7 -4.7 -85.8 -23.1 -118.6 -49.6 -4.3 -3.4 -8 -6.2 -8.5 -6.2 -1.1 0 -11 7.6 -19.5 15.2 l-7.7 6.7 -9.7 -10 c-20.7 -21.6 -35.1 -42.1 -48 -68.4 -7.5 -15.1 -15.9 -36.9 -18 -46.3 l-0.7 -3.3 6.2 0.3 6.2 0.3 4.3 12.5 c11.7 34.5 29.3 64 54.2 90.9 l5.9 6.5 7.1 -5.5 7 -5.5 -7.3 -7.7 c-8.7 -9 -21.1 -25.4 -27.9 -37 -11.2 -18.7 -22.5 -45.1 -22.5 -52.5 0 -2.1 0.3 -2.2 7.8 -2.1 l7.7 0.1 3.4 9 c9.9 26.1 25.6 51 46.3 73.2 l6.4 6.9 9.5 -5.7 c31.3 -19.1 74.7 -33.9 103.7 -35.4 l10.2 -0.5 0 -6.2 c0 -14.3 3.7 -22.5 12.4 -28 4.6 -2.8 5.6 -3 14.5 -3 8.1 0 10.4 0.4 14.4 2.4 9.3 4.5 13.7 13.7 13.7 28.1 l0 7 7.9 0 c17.2 0 53.9 9.6 78.5 20.7 10.7 4.7 16 7.5 29.4 15.6 l8.4 4.9 3.5 -3.3 c18.2 -17.5 40 -51.4 49.9 -78 l2.9 -7.7 7.7 -0.1 c7.6 -0.1 7.8 0 7.8 2.3 0 3.4 -4.3 16 -9.1 26.8 -10.9 24.3 -25.7 46.4 -42.5 63.8 l-6.3 6.5 3.5 2.4 c2.9 2 4.7 2.4 10 2.4 6.4 -0.1 6.4 -0.1 10.7 -5 23.1 -26.1 39.1 -53.7 50.3 -86.3 l4.3 -12.5 6.1 -0.3 6.2 -0.3 -0.7 3.3 c-2 9.2 -10.5 31.2 -18 46.3 -9.1 18.4 -18.8 33.8 -30.7 48.6 -9.1 11.2 -25.6 28.9 -27 28.9 -0.5 0 -4.9 -3.3 -9.6 -7.3 -10.6 -8.9 -16.8 -13.7 -17.7 -13.7 -0.4 0 -4.1 2.7 -8.3 6.1 -34.3 27.6 -76.5 45.1 -120.4 49.8 -11.4 1.3 -37.9 1.2 -49.3 -0.1z m55 -12.3 c23 -3.5 43.8 -10.1 66.1 -21.1 16.3 -8 41.4 -24.6 41.4 -27.3 0 -1.3 -24 -14.3 -36 -19.5 -14.1 -6.1 -34.2 -12.7 -47.2 -15.5 l-8.8 -1.9 0 24 c0 27.6 -0.5 30.3 -6.6 36.4 -6 6 -8.8 6.4 -48.9 6.4 l-34.5 0 0 -33.6 c0 -31.5 -0.1 -33.5 -1.7 -33 -1 0.3 -6.1 1.5 -11.3 2.7 -12.8 2.9 -35.7 10.8 -47.7 16.4 -11.5 5.4 -31.3 16.5 -31.3 17.6 0 1.1 9.9 8.6 20 15.1 22.5 14.7 48.6 25.6 73.5 30.8 7.9 1.7 12.6 2.4 29.5 4.4 6.9 0.8 32.7 -0.3 43.5 -1.9z m-3.3 -37.3 l3.3 -3.2 0.3 -23 0.3 -23 -30 0 -30.1 0 0 26.5 0 26.6 26.5 -0.3 26.5 -0.3 3.2 -3.3z m-14.4 -70.6 c-0.4 -7.4 -3.8 -12.9 -9.4 -15.2 -3 -1.3 -3.8 -1.2 -6.4 0.1 -5.2 2.7 -8.2 7.7 -8.8 15 l-0.5 6.5 12.8 0 12.7 0 -0.4 -6.4z"/>
  <path d="M290.6 428.9 c-2.3 -1.8 -2.6 -2.8 -2.6 -8 0 -8.1 1.9 -9.9 10 -9.9 7.8 0 10 2.1 10 9.7 0 4.4 -0.5 5.9 -2.5 7.8 -3.2 3.3 -11 3.5 -14.9 0.4z"/>
  <path d="M51 170.5 c0 -0.3 2.2 -5.5 4.9 -11.5 33.2 -74.2 98.6 -129.5 176.7 -149.6 23.2 -5.9 38.7 -7.7 65.4 -7.7 26.7 0 42.2 1.8 65.4 7.7 35.9 9.3 71.9 27.4 101.6 51.3 10.9 8.7 29.6 27.4 38.3 38.3 9.5 11.7 22.5 31.5 29.1 44 4.7 8.9 12.6 26.3 12.6 27.6 0 0.2 -2.8 0.4 -6.3 0.4 l-6.4 0 -7.6 -15.2 c-13.2 -26.5 -28.1 -47.3 -48.7 -67.8 -20.8 -20.9 -41.7 -35.9 -68.4 -49 -51.9 -25.5 -106.8 -32.5 -161.6 -20.4 -37.2 8.2 -75.6 26.7 -106 51 -10.9 8.8 -29.6 27.5 -38.4 38.4 -11.1 13.8 -22.3 31.5 -30.3 47.8 l-7.5 15.2 -6.4 0 c-3.5 0 -6.4 -0.2 -6.4 -0.5z"/>
  <path d="M85.4 167.8 c0.8 -3.9 10.8 -22.4 17.8 -32.8 31.4 -46.6 80.1 -81.3 133.1 -94.9 16.1 -4.1 28.3 -6 46.1 -7.1 61.1 -3.7 116.5 13.4 162.8 50.2 24.1 19.2 46 45.9 60.7 74.1 7.1 13.6 7.1 13.7 -3.3 13.7 l-8.4 0 -5.2 -9.2 c-22.2 -39.1 -51.6 -68 -90 -88.6 -35.4 -19 -80.5 -28.7 -117 -25.3 -74.5 7.1 -140.2 50.1 -175.9 115.4 l-4.3 7.7 -8.5 0 -8.5 0 0.6 -3.2z"/>
 </g>
 <g fill="#ffffff">
  <path d="M281 487.4 c-16.5 -2 -21.7 -2.7 -29.5 -4.4 -24.9 -5.2 -51 -16.1 -73.5 -30.8 -10.1 -6.5 -24 -17.1 -24 -18.3 0 -1.4 16 -10.8 30.5 -17.9 19.7 -9.7 46.4 -18.4 68.3 -22.4 l3.2 -0.5 0 33.9 0 34 31.5 0 c18.1 0 33.5 -0.4 36.3 -1 5.8 -1.3 11.2 -5.5 13.8 -10.7 1.7 -3.3 2 -7 2.4 -29.9 l0.5 -26.1 11.8 2.3 c15 3.1 37.7 10.6 53.3 17.6 12.3 5.6 36.4 19.2 36.4 20.7 0 0.4 -3 3.2 -6.7 6.1 -28.9 23.2 -67.1 39.7 -104.8 45.5 -10.4 1.6 -42 2.8 -49.5 1.9z"/>
  <path d="M265 422.5 l0 -29.5 33 0 33.1 0 -0.3 26 -0.3 26 -3.3 3.2 -3.2 3.3 -29.5 0.3 -29.5 0.3 0 -29.6z m37.5 3 c1.4 -1.3 2.5 -3.5 2.5 -4.8 0 -3.3 -3.5 -6.7 -7 -6.7 -6.5 0 -9.4 7.9 -4.4 11.9 3.5 2.7 5.9 2.6 8.9 -0.4z"/>
  <path d="M110.9 441.3 c-27.4 -29.4 -45.2 -60 -57.9 -99.5 l-2.8 -8.8 13.8 0 13.7 0 1.2 4.3 c8.1 28.1 28.9 63.2 51.2 86.2 l9 9.3 -8.3 6.5 c-4.6 3.5 -9 7.2 -9.7 8.1 -0.7 0.9 -1.7 1.6 -2.1 1.6 -0.5 0 -4.1 -3.5 -8.1 -7.7z"/>
  <path d="M475.5 448 c-0.3 -0.5 -4.6 -4.1 -9.5 -8.1 l-9 -7.1 9.2 -9.7 c15.2 -15.8 27.5 -33.3 37.7 -53.7 6.3 -12.6 11 -23.9 13.1 -31.6 l1.3 -4.8 13.7 0 13.8 0 -3.2 10.3 c-11.7 36.7 -30.6 68.8 -58.1 98.5 -6.7 7.2 -7.9 8 -9 6.2z m3.9 -2.9 c0.4 -0.5 0 -1.2 -0.6 -1.5 -1.1 -0.5 -1.1 -0.7 0 -1.2 1.7 -0.8 0.5 -2.4 -1.7 -2.4 -2.8 0 -4.6 2.6 -3.1 4.5 1.4 1.7 4.6 2 5.4 0.6z"/>
  <path d="M445.5 425.1 c-7.5 -5.3 -25.3 -15.1 -36.3 -20 -25.1 -11.4 -61.7 -21.1 -79.3 -21.1 l-7.9 0 0 -7 c0 -14.4 -4.5 -23.6 -13.7 -28.1 -7.3 -3.5 -16.5 -3.3 -22.9 0.7 -8.7 5.4 -12.4 13.6 -12.4 27.9 l0 6.2 -10.2 0.5 c-30.1 1.5 -74.9 17.1 -106.5 37.1 -5 3.2 -9.5 5.7 -10.1 5.7 -1.2 0 -13.2 -12.7 -21.3 -22.6 -13.2 -16.2 -25.5 -37.6 -33.8 -58.7 -2.2 -5.8 -4.1 -11 -4.1 -11.6 0 -0.8 61.1 -1.1 211 -1.1 144.4 0 211 0.3 211 1 0 2.1 -6.4 17.9 -12 29.5 -9.7 19.9 -27.9 45.4 -42.7 59.7 l-4.8 4.6 -4 -2.7z"/>
  <path d="M282.2 374.6 c0.3 -8.3 0.7 -9.8 3.1 -13 6.7 -8.8 17.6 -8.8 24.3 0 2.6 3.4 2.9 4.6 3.2 13.1 l0.4 9.3 -15.7 0 -15.7 0 0.4 -9.4z"/>
  <path d="M432.7 305.6 c-2.1 -0.8 -4.1 -1.7 -4.4 -2 -0.3 -0.3 0.3 -2.6 1.3 -5.1 1.4 -3.3 2.3 -4.3 3.4 -3.9 5.6 2.4 10.4 1.5 12.3 -2.4 1.3 -2.5 0.8 -4.1 -9.4 -28.6 -6 -14.3 -10.9 -26.5 -10.9 -27.3 0 -0.9 1.7 -1.3 6 -1.3 7.1 0 5.9 -1.7 15 22.3 3.5 9.2 6.6 16.7 6.9 16.7 0.3 0 1.9 -3.7 3.5 -8.3 1.6 -4.5 4.7 -13.3 6.8 -19.4 l4 -11.3 6.4 0 c3.5 0 6.4 0.2 6.4 0.4 0 1.7 -24.3 62.5 -25.8 64.5 -1 1.3 -2.9 3.3 -4.3 4.3 -3.4 2.5 -12.3 3.2 -17.2 1.4z"/>
  <path d="M104.7 289.9 c-4.9 -1.2 -13.4 -5.2 -17 -8.1 l-2.8 -2.3 3.9 -4.6 3.8 -4.6 3.4 2.4 c6.7 4.8 11.1 6.3 18.7 6.3 6.2 0 7.5 -0.3 10.2 -2.6 2.3 -1.9 3.1 -3.4 3.1 -5.8 0 -5.7 -2.3 -7 -21.6 -12.6 -9 -2.5 -14.6 -6.5 -16.8 -11.9 -4.1 -10.5 -0.2 -21 9.9 -26.4 3.3 -1.8 5.7 -2.2 14 -2.2 8.8 0 10.7 0.4 16 2.8 3.3 1.5 6.7 3.5 7.7 4.3 1.6 1.5 1.4 1.9 -1.8 6.4 l-3.5 4.9 -4.7 -3 c-11.8 -7.3 -26.2 -5 -26.2 4.3 0 4.7 3.5 7.1 14.3 10.1 17.7 4.9 24.4 10 25.5 19.2 1.1 10.6 -5 20 -14.9 22.9 -5.7 1.7 -15.1 1.9 -21.2 0.5z"/>
  <path d="M165.7 289.5 c-13.4 -5.1 -20.3 -20 -16.2 -35 3.3 -12.3 13.1 -19.9 25.5 -19.9 14.5 0.1 24.2 9.8 25.7 25.8 l0.6 6.6 -20.2 0 c-13.2 0 -20.1 0.4 -20.1 1 0 0.6 0.9 2.9 2.1 5.1 3 5.9 9.4 8.6 16.6 7.1 2.9 -0.6 6.5 -2 8.1 -3.2 3.2 -2.4 5.1 -2 8.6 1.9 1.9 2.1 1.9 2.1 0 4.2 -1 1.2 -3.9 3.3 -6.3 4.7 -5.5 3.2 -18.2 4.1 -24.4 1.7z m21.9 -33.6 c-2.6 -13 -18.9 -14.7 -25.2 -2.7 -2.9 5.7 -2.7 5.8 12.2 5.8 l13.7 0 -0.7 -3.1z"/>
  <path d="M223.5 288.7 c-9.7 -4.6 -16.5 -15.3 -16.5 -25.8 0 -20.9 22.4 -34.8 41.1 -25.6 3.1 1.5 6.4 3.6 7.4 4.7 1.9 2.1 1.8 2.2 -2.3 6.2 l-4.1 4.2 -2.3 -2.1 c-3.7 -3.3 -6.3 -4.3 -11.5 -4.3 -9.8 0 -15.9 7.4 -15.1 18.2 0.5 6.5 2.4 9.9 7.9 13.6 4.7 3.3 12.1 2.7 17.9 -1.3 l4.1 -2.9 3.6 3.7 c3.7 3.6 3.7 3.6 1.7 5.8 -4.4 4.8 -10.3 7.3 -18.8 7.6 -7 0.4 -8.8 0.1 -13.1 -2z"/>
  <path d="M274.4 289.1 c-4.4 -2 -7.4 -5.6 -9.2 -11 -0.8 -2.1 -1.2 -10.9 -1.2 -23.3 l0 -19.9 6.3 0.3 6.2 0.3 0.5 18.5 c0.6 23.3 1.4 25 11.7 25 4.2 0 5.4 -0.5 7.9 -3.1 l2.9 -3 0.5 -18.7 0.5 -18.7 6.3 -0.3 6.2 -0.3 0 27.6 0 27.5 -6.5 0 -6.5 0 0 -3.7 0 -3.7 -3.2 3.1 c-1.8 1.8 -4.6 3.7 -6.1 4.2 -4.3 1.7 -11.7 1.3 -16.3 -0.8z"/>
  <path d="M401.5 290.3 c-3.4 -0.9 -6.3 -3.3 -7.9 -6.8 -1.3 -2.6 -1.6 -6.8 -1.6 -19.9 l0 -16.6 -3.5 0 -3.5 0 0 -6 0 -6 3.5 0 3.5 0 0 -7 0 -7 6.5 0 6.5 0 0 7 0 7 7 0 7 0 0 6 0 6 -7 0 -7 0 0 14.9 c0 17.4 0.1 17.6 8.5 16.9 l5.5 -0.5 0 4.9 c0 4.6 -0.2 5 -3.5 6.4 -3.3 1.4 -9.9 1.7 -14 0.7z"/>
  <path d="M325.2 262.8 l0.3 -27.3 6.3 -0.3 6.2 -0.3 0 5.8 0 5.8 2.5 -3.8 c2.8 -4 8.4 -7.4 13.1 -7.9 l2.9 -0.3 0.3 6.6 0.3 6.6 -3.9 0.6 c-5.3 0.9 -10.1 4.4 -12.6 9.2 -1.8 3.4 -2.2 6.2 -2.4 18.3 l-0.4 14.2 -6.4 0 -6.4 0 0.2 -27.2z"/>
  <path d="M364.2 262.8 l0.3 -27.3 6.3 -0.3 6.2 -0.3 0 27.6 0 27.5 -6.5 0 -6.5 0 0.2 -27.2z"/>
  <path d="M504 269.5 l0 -9.5 -9.5 0 -9.5 0 0 -6 0 -6 9.5 0 9.4 0 0.3 -9.7 0.3 -9.8 6 0 6 0 0.3 9.8 0.3 9.7 9.4 0 9.5 0 0 6 0 6 -9.5 0 -9.5 0 0 9.5 0 9.5 -6.5 0 -6.5 0 0 -9.5z"/>
  <path d="M364 221.5 l0 -6.6 6.8 0.3 6.7 0.3 0 6 0 6 -6.7 0.3 -6.8 0.3 0 -6.6z"/>
  <path d="M61.2 167.9 c2.6 -7.6 15.4 -31.5 22.6 -42.4 10.9 -16.3 19.5 -26.9 33.2 -40.5 20.7 -20.8 41.8 -35.8 68.5 -49 71.4 -35.3 153.4 -35.3 225.1 0 26.7 13.1 47.6 28.1 68.4 49 14.1 14 21.8 23.4 32.8 39.9 7 10.6 24.2 42.8 24.2 45.3 0 0.4 -6.2 0.8 -13.8 0.8 l-13.8 0 -4.9 -9.7 c-10.2 -19.9 -26.5 -42.2 -42.8 -58.6 -36.3 -36.2 -83.8 -59.2 -136.2 -65.7 -11.5 -1.5 -41.3 -1.5 -53 -0.1 -66.1 8.1 -123.6 42.4 -162.3 96.9 -5.8 8 -16.3 25.9 -19.3 32.8 l-2 4.4 -13.9 0 -13.9 0 1.1 -3.1z"/>
  <path d="M98 170.3 c0 -1.5 9.8 -18.5 16 -27.8 43 -63.7 116.4 -101.3 192 -98.2 70.5 2.9 136.4 39.3 174.9 96.6 6 8.9 17.1 27.9 17.1 29.3 0 0.5 -90 0.8 -200 0.8 -110 0 -200 -0.3 -200 -0.7z m204.4 -18.5 c1.3 -1.8 1.6 -5.1 1.6 -15.1 l0 -12.9 3 -3 c2.8 -2.8 3.5 -3 8.2 -2.6 4.2 0.4 5.6 1.1 7.5 3.4 3.2 4 3 7.9 -0.6 11.5 -2.5 2.4 -3.8 2.9 -7.8 2.9 -2.7 0 -5.4 -0.5 -6.1 -1.2 -2 -2 -3.5 0.4 -2.3 3.5 2 5.1 9.3 6.2 16.7 2.6 5.9 -2.8 8.4 -7.1 8.4 -14.4 0 -5.5 -0.2 -6 -4.3 -10 -3.3 -3.4 -5.3 -4.5 -8.8 -5 -9.2 -1.4 -17.7 3.4 -19.9 11.3 -0.5 2 -1 9.9 -1 17.5 0 12.9 0.1 13.7 1.9 13.7 1.1 0 2.7 -1 3.5 -2.2z m-101.2 -10 c4.3 -1.3 13.1 -8.4 12.2 -9.9 -1 -1.7 -6.3 -0.9 -9.9 1.5 -10 6.8 -24.2 2.1 -27.5 -9.1 -1.2 -3.8 -1.1 -4.6 1.1 -9 3.8 -7.5 11.3 -11.4 19.4 -9.9 1.9 0.4 5.7 2.2 8.6 4.1 7.9 5.4 12.3 4.3 7.5 -1.9 -3.9 -5.2 -11.7 -8.6 -19.3 -8.6 -10.4 0 -18.4 4.8 -22.4 13.5 -8 17.3 10.5 35.3 30.3 29.3z m40.7 -1.6 c9.9 -7.3 9.4 -20.6 -0.9 -26.6 -8.2 -4.8 -21 -1.3 -25 6.9 -2.6 5.3 -2.5 8.1 0.3 13.5 3.2 6.3 9.1 9.4 17.1 8.7 3.6 -0.3 6.9 -1.3 8.5 -2.5z m13.3 1.1 c1.5 -1.3 1.8 -3.1 1.8 -10.2 0 -9.9 1.4 -13.1 5.7 -13.1 4.9 0 6.3 2.4 6.3 11.2 0 9.5 1.8 13.7 5.8 13.8 0.9 0 1.2 -2.8 1.2 -10.7 0 -11.6 1.1 -14.3 5.7 -14.3 4.7 0 6.3 3.1 6.3 12.7 0 6.6 0.4 9.1 1.7 10.5 3.6 4 4.3 2.5 4.3 -10.3 l0 -12.1 -3.3 -3.3 c-4.4 -4.4 -9.4 -5.4 -14.4 -2.9 -3.7 1.9 -3.9 1.9 -7.6 0 -5.1 -2.4 -10 -1.5 -14.4 2.9 l-3.3 3.3 0 12.1 c0 12.7 0.5 13.8 4.2 10.4z m91 -17 l0.3 -18.8 8.5 -0.5 c9.3 -0.5 11 -1.2 11 -4.1 0 -1.8 -0.9 -1.9 -23 -1.9 -12.6 0 -23 0.3 -23 0.8 0 0.4 0.7 1.8 1.6 3 1.4 2 2.4 2.2 10 2.2 l8.4 0 0 17 c0 15.7 0.2 17.2 2 19 1.1 1.1 2.4 2 3 2 0.6 0 1.1 -7.4 1.2 -18.7z m28.8 -1.3 c0 -18.7 -0.1 -20.1 -2 -22 -1.1 -1.1 -2.7 -2 -3.5 -2 -1.3 0 -1.5 2.9 -1.5 20 0 18.7 0.1 20.1 2 22 1.1 1.1 2.7 2 3.5 2 1.3 0 1.5 -2.9 1.5 -20z m8.3 18 c1.4 -1.1 3.1 -3.6 3.7 -5.5 l1.2 -3.5 11.4 0 11.4 0 2.4 4.9 c2 3.9 3.1 5 5.7 5.5 1.8 0.3 3.4 0.5 3.6 0.2 0.2 -0.2 -1.7 -4.8 -4.3 -10.2 -2.5 -5.4 -6.6 -14.4 -9 -19.9 -5 -11.2 -6.7 -13.5 -10 -13.5 -3 0 -4.8 2.9 -11.4 17.5 -2.9 6.6 -6.8 15.3 -8.6 19.3 l-3.3 7.2 2.3 0 c1.3 0 3.5 -0.9 4.9 -2z m44.5 -1.2 c1.8 -1.8 1.5 -3.6 -0.7 -4.8 -4.1 -2.1 -7.3 2.6 -3.3 4.9 2.2 1.3 2.6 1.3 4 -0.1z"/>
  <path d="M228.3 135.8 c-8.4 -2.2 -9.8 -12.4 -2.3 -16.3 5 -2.6 9.7 -2 13.6 1.9 3.7 3.7 4.1 5.4 2 9.4 -2.3 4.4 -7.8 6.5 -13.3 5z"/>
  <path d="M392.3 123.8 c2.9 -7.5 7.2 -15.7 7.8 -15.1 0.4 0.4 2.4 4.3 4.3 8.6 l3.5 7.7 -8 0 c-6.1 0 -8 -0.3 -7.6 -1.2z"/>
 </g>
</svg>