<svg version="1.1" id="Layer_1" xmlns:x="ns_extend;" xmlns:i="ns_ai;" xmlns:graph="ns_graphs;" xmlns="http://www.w3.org/2000/svg" xmlns:xlink="http://www.w3.org/1999/xlink" x="0px" y="0px" viewBox="0 0 1008 220.7" style="enable-background:new 0 0 1008 220.7;" xml:space="preserve">
 <style type="text/css">
  .st0{fill:#041E42;}
 </style>
 <metadata>
  <sfw xmlns="ns_sfw;">
   <slices>
   </slices>
   <sliceSourceBounds bottomLeftOrigin="true" height="220.7" width="1008" x="-303.2" y="-311">
   </sliceSourceBounds>
  </sfw>
 </metadata>
 <g>
  <path class="st0" d="M1003.3,59.1c1.5,0.8,2.6,2,3.5,3.4c0.8,1.4,1.3,3,1.3,4.7c0,1.7-0.4,3.2-1.3,4.7c-0.8,1.4-2,2.5-3.5,3.3
		c-1.5,0.8-3.1,1.2-4.9,1.2c-1.7,0-3.3-0.4-4.8-1.2c-1.5-0.8-2.6-1.9-3.5-3.3c-0.8-1.4-1.3-3-1.3-4.7c0-1.7,0.4-3.2,1.3-4.7
		c0.8-1.4,2-2.6,3.5-3.4c1.5-0.8,3.1-1.2,4.8-1.2C1000.2,57.8,1001.8,58.2,1003.3,59.1z M1002.3,73.6c1.2-0.6,2.1-1.5,2.7-2.7
		c0.7-1.1,1-2.4,1-3.8c0-1.4-0.3-2.7-1-3.9c-0.6-1.2-1.5-2.1-2.7-2.7c-1.2-0.7-2.5-1-3.9-1c-1.4,0-2.7,0.3-3.8,1s-2,1.6-2.7,2.7
		c-0.7,1.2-1,2.4-1,3.9s0.3,2.7,1,3.8c0.6,1.1,1.5,2,2.7,2.7c1.1,0.6,2.4,1,3.8,1C999.8,74.6,1001.1,74.3,1002.3,73.6z M1001.8,66.8
		c-0.5,0.5-1.1,0.8-1.8,1l2.8,4.2h-2.5l-2.3-3.8h-0.9V72h-2.2V62h2.9c3.1,0,4.6,1,4.6,3C1002.5,65.7,1002.3,66.3,1001.8,66.8z
		 M997.1,66.5h1.1c1.4,0,2.1-0.5,2.1-1.5c0-0.5-0.2-0.9-0.5-1.1c-0.3-0.2-0.9-0.3-1.6-0.3h-1.1L997.1,66.5L997.1,66.5z">
  </path>
  <path class="st0" d="M323.8,89.2c-0.6,0.6-1.4,0.9-2.2,0.9h-27c-0.9,0-1.3,0.4-1.3,1.3v61.3c0,6.4,1.5,11.1,4.4,14
		c2.9,2.9,7.5,4.3,13.9,4.3h7.9c0.9,0,1.6,0.3,2.2,0.9c0.6,0.6,0.9,1.3,0.9,2.2v19.1c0,1.9-1.1,3-3.2,3.3l-13.8,0.2
		c-13.9,0-24.3-2.3-31.2-6.9s-10.4-13.2-10.6-25.9V91.4c0-0.9-0.4-1.3-1.3-1.3h-15.1c-0.9,0-1.6-0.3-2.2-0.9
		c-0.6-0.6-0.9-1.3-0.9-2.2V69.2c0-0.8,0.3-1.6,0.9-2.2c0.6-0.6,1.4-0.9,2.2-0.9h15.1c0.9,0,1.3-0.4,1.3-1.3V35.2
		c0-0.8,0.3-1.6,0.9-2.2c0.6-0.6,1.4-0.9,2.2-0.9h23c0.9,0,1.6,0.3,2.2,0.9c0.6,0.6,0.9,1.3,0.9,2.2v29.8c0,0.8,0.4,1.3,1.3,1.3h27
		c0.9,0,1.6,0.3,2.2,0.9c0.6,0.6,0.9,1.3,0.9,2.2V87C324.8,87.9,324.4,88.6,323.8,89.2z">
  </path>
  <path class="st0" d="M445.2,130.8l-0.3,7.9c0,2-1.1,3.1-3.2,3.1h-82.8c-0.9,0-1.3,0.4-1.3,1.3c0.5,5.6,1.3,9.4,2.4,11.4
		c4.2,12.2,14.5,18.4,31,18.6c12,0,21.5-4.8,28.6-14.2c0.7-1,1.6-1.5,2.6-1.5c0.7,0,1.3,0.2,1.9,0.8l16.4,13
		c1.6,1.2,1.9,2.5,0.8,4.1c-5.5,7.5-12.7,13.2-21.8,17.3c-9.1,4.1-19.2,6.1-30.3,6.1c-13.8,0-25.4-3-35-8.9s-16.6-14.2-21-24.9
		c-4.1-9.2-6.1-21.9-6.1-38.2c0-9.8,1.1-17.8,3.2-23.9c3.5-11.9,10.2-21.2,20-28.1s21.6-10.3,35.3-10.3c34.7,0,54.3,17.5,58.7,52.4
		C444.8,120.8,445.2,125.6,445.2,130.8z M369.1,94.3c-4.3,3.1-7.4,7.5-9.1,13.1c-1.1,2.9-1.8,6.6-2.1,11.2c-0.4,0.9,0,1.3,1.1,1.3
		h53.7c0.9,0,1.3-0.4,1.3-1.3c-0.4-4.2-0.9-7.5-1.6-9.7c-1.6-6.1-4.7-10.9-9.4-14.2c-4.7-3.4-10.5-5.1-17.6-5.1
		C378.9,89.6,373.4,91.2,369.1,94.3z">
  </path>
  <path class="st0" d="M555.8,76.4c8.5,8.1,12.8,19.2,12.8,33.3v83.4c0,0.9-0.3,1.6-0.9,2.2c-0.6,0.6-1.4,0.9-2.2,0.9h-24.3
		c-0.9,0-1.6-0.3-2.2-0.9c-0.6-0.6-0.9-1.3-0.9-2.2v-77.3c0-7.8-2.3-14.1-6.9-18.9s-10.7-7.2-18.2-7.2s-13.7,2.4-18.4,7.1
		c-4.7,4.8-7,11-7,18.8v77.6c0,0.9-0.3,1.6-0.9,2.2c-0.6,0.6-1.4,0.9-2.2,0.9h-24.3c-0.9,0-1.6-0.3-2.2-0.9
		c-0.6-0.6-0.9-1.3-0.9-2.2V69.2c0-0.8,0.3-1.6,0.9-2.2c0.6-0.6,1.4-0.9,2.2-0.9h24.3c0.9,0,1.6,0.3,2.2,0.9
		c0.6,0.6,0.9,1.3,0.9,2.2v8.1c0,0.5,0.2,0.8,0.5,1c0.3,0.2,0.6,0,0.8-0.5c7.2-9.2,18.2-13.7,32.8-13.7
		C535.9,64.2,547.3,68.2,555.8,76.4z">
  </path>
  <path class="st0" d="M669.3,69.8c8.5,3.7,15,8.9,19.6,15.4c4.6,6.5,6.9,14,6.9,22.3v85.7c0,0.9-0.3,1.6-0.9,2.2
		c-0.6,0.6-1.4,0.9-2.2,0.9h-24.3c-0.9,0-1.6-0.3-2.2-0.9c-0.6-0.6-0.9-1.3-0.9-2.2V185c0-0.5-0.2-0.8-0.5-0.9
		c-0.4-0.1-0.7,0-1.1,0.4c-8.6,9.2-21.2,13.7-37.6,13.7c-13.2,0-24.1-3.2-32.7-9.7c-8.6-6.4-12.8-16-12.8-28.8
		c0-13.2,4.8-23.5,14.4-30.9c9.6-7.4,23.2-11.1,40.6-11.1h28.3c0.9,0,1.3-0.4,1.3-1.3v-6.1c0-6.6-2-11.7-6.1-15.4
		c-4.1-3.6-10.1-5.5-18.2-5.5c-6.7,0-12.1,1.1-16.3,3.4c-4.2,2.3-6.8,5.5-7.8,9.5c-0.5,2-1.8,2.9-3.7,2.5l-25.7-3.1
		c-0.9-0.2-1.6-0.5-2.2-0.9c-0.6-0.4-0.8-1-0.7-1.6c1.4-10.3,7.2-18.8,17.3-25.4c10.1-6.6,22.9-9.9,38.2-9.9
		C651,64.2,660.8,66,669.3,69.8z M654.8,168.2c6.2-4.4,9.3-10,9.3-16.8v-12c0-0.9-0.4-1.3-1.3-1.3h-22.2c-9.3,0-16.7,1.7-22.1,5.1
		s-8.1,8.2-8.1,14.5c0,5.4,2.1,9.6,6.2,12.6c4.1,3,9.5,4.4,16,4.4C641.2,174.8,648.6,172.6,654.8,168.2z">
  </path>
  <path class="st0" d="M826.1,130.8c0,12-1.7,22.6-5,31.8c-3.9,11.2-10.1,19.9-18.8,26.2c-8.6,6.3-19.2,9.4-31.7,9.4
		c-12.3,0-22.5-4.5-30.4-13.5c-0.4-0.5-0.7-0.7-1.1-0.5c-0.4,0.2-0.5,0.5-0.5,1v7.9c0,0.9-0.3,1.6-0.9,2.2c-0.6,0.6-1.4,0.9-2.2,0.9
		h-24.3c-0.9,0-1.6-0.3-2.2-0.9c-0.6-0.6-0.9-1.3-0.9-2.2v-172c0-0.8,0.3-1.6,0.9-2.2s1.4-0.9,2.2-0.9h24.3c0.9,0,1.6,0.3,2.2,0.9
		c0.6,0.6,0.9,1.3,0.9,2.2v55.2c0,0.5,0.2,0.8,0.5,1c0.3,0.2,0.7,0.1,1.1-0.2c7.6-8.7,17.6-13,30.2-13c13,0,23.8,3.1,32.4,9.4
		c8.5,6.3,14.9,15,18.9,26.2C824.6,109.3,826.1,119.6,826.1,130.8z M794.7,131.3c0-13.2-2.7-23.6-7.9-31
		c-4.8-7.1-11.8-10.7-21.2-10.7c-8.6,0-15.3,3.7-19.8,11.2c-4.4,7-6.6,17-6.6,30.3c0,13.1,2,22.9,6.1,29.5
		c4.6,8.1,11.5,12.2,20.6,12.2c4.9,0,9.3-1.1,13.2-3.2c3.9-2.1,7-5.1,9.3-9C792.5,153.5,794.7,143.7,794.7,131.3z">
  </path>
  <path class="st0" d="M838.8,195.5c-0.6-0.6-0.9-1.3-0.9-2.2v-172c0-0.8,0.3-1.6,0.9-2.2s1.4-0.9,2.2-0.9h24.3
		c0.9,0,1.6,0.3,2.2,0.9c0.6,0.6,0.9,1.3,0.9,2.2v172c0,0.9-0.3,1.6-0.9,2.2c-0.6,0.6-1.4,0.9-2.2,0.9H841
		C840.2,196.4,839.4,196.1,838.8,195.5z">
  </path>
  <path class="st0" d="M998.7,130.6l-0.3,7.9c0,2-1.1,3.1-3.2,3.1h-82.8c-0.9,0-1.3,0.4-1.3,1.3c0.5,5.6,1.3,9.4,2.4,11.4
		c4.2,12.2,14.5,18.4,31,18.6c12,0,21.5-4.8,28.6-14.2c0.7-1,1.6-1.5,2.6-1.5c0.7,0,1.3,0.2,1.8,0.8l16.4,13
		c1.6,1.2,1.8,2.5,0.8,4.1c-5.5,7.5-12.7,13.2-21.8,17.3s-19.2,6.1-30.3,6.1c-13.8,0-25.4-3-35-8.9s-16.6-14.2-21-24.9
		c-4.1-9.2-6.1-21.9-6.1-38.2c0-9.8,1.1-17.8,3.2-23.9c3.5-11.9,10.2-21.2,20-28.1S925.1,64,938.9,64c34.7,0,54.3,17.5,58.7,52.4
		C998.3,120.6,998.7,125.4,998.7,130.6z M922.6,94.1c-4.3,3.1-7.4,7.5-9.1,13.1c-1.1,2.9-1.8,6.6-2.1,11.2c-0.4,0.9,0,1.3,1.1,1.3
		h53.7c0.9,0,1.3-0.4,1.3-1.3c-0.4-4.2-0.9-7.5-1.6-9.7c-1.6-6.1-4.7-10.9-9.4-14.2c-4.7-3.4-10.5-5.1-17.6-5.1
		C932.4,89.4,926.9,91,922.6,94.1z">
  </path>
  <path class="st0" d="M228.4,122.6l-30.6-90.8c-2.2-6.6-7.8-11.5-14.6-12.8L87.8,0.4c-6.7-1.3-13.6,1-18.1,6.1L4.9,79
		c-4.6,5.2-6.1,12.5-3.9,19l30.6,90.8c2.2,6.6,7.8,11.5,14.6,12.8l95.5,18.6c1.2,0.2,2.4,0.4,3.7,0.4c5.4,0,10.8-2.3,14.4-6.4
		l64.8-72.6C229.2,136.5,230.7,129.2,228.4,122.6z M191.5,33.9l20.1,59.7l-42.8-67.5c-0.9-1.5-2.1-2.7-3.3-3.8l16.4,3.2
		C186.4,26.4,190,29.6,191.5,33.9z M160,191.5l-37.3,1.9l60.3-34.9c0.1-0.1,0.2-0.1,0.3-0.2l-14.5,27.6
		C167,189.1,163.7,191.3,160,191.5z M66.3,190.9l-21.1-33.2c0.4,0.3,0.8,0.6,1.2,0.8l60.8,35.2c0.3,0.2,0.6,0.3,0.9,0.5l-32.4,1.6
		C71.9,195.9,68.3,194.1,66.3,190.9z M69.5,29.2l37.3-1.9L46.5,62.2c-0.1,0.1-0.2,0.1-0.3,0.2l14.5-27.6
		C62.4,31.5,65.8,29.4,69.5,29.2z M163.2,29.8L184.2,63c-0.4-0.3-0.8-0.6-1.2-0.8L122.2,27c-0.3-0.2-0.6-0.3-0.9-0.5l32.4-1.6
		C157.5,24.7,161.1,26.6,163.2,29.8z M183.7,145.5c0,2.9-1.6,5.6-4.1,7.1l-60.8,35.2c-2.5,1.5-5.7,1.5-8.2,0l-60.8-35.2
		c-2.5-1.5-4.1-4.2-4.1-7.1V75.1c0-2.9,1.6-5.7,4.1-7.1l60.8-35.2c1.3-0.7,2.7-1.1,4.1-1.1c1.4,0,2.9,0.4,4.1,1.1L179.6,68
		c2.5,1.5,4.1,4.2,4.1,7.1V145.5z M39.3,148.3l-17.7-27.9c-2-3.2-2.2-7.2-0.4-10.5L39,76v69.5C39,146.5,39.1,147.4,39.3,148.3z
		 M190.2,72.4l17.6,27.8c2,3.2,2.2,7.2,0.4,10.5l-17.8,33.9V75.1C190.4,74.2,190.3,73.3,190.2,72.4z M74.7,10.9
		c2.4-2.7,5.9-4.2,9.4-4.2c0.8,0,1.6,0.1,2.4,0.2l59.6,11.6l-76.9,3.9c-2.1,0.1-4.2,0.6-6.1,1.5L74.7,10.9z M9.9,83.5l42.8-48
		l-37.5,71.2c-1.1,2.1-1.8,4.5-1.9,6.8L7.4,95.9C5.9,91.6,6.9,86.9,9.9,83.5z M38,186.8L17.8,127l42.8,67.5c0.9,1.4,2.1,2.7,3.3,3.8
		l-16.4-3.2C43.1,194.2,39.4,191,38,186.8z M154.8,209.8c-2.9,3.3-7.5,4.8-11.8,4l-59.6-11.6l76.9-3.9c2.1-0.1,4.2-0.6,6.1-1.5
		L154.8,209.8z M219.5,137.2l-42.8,48l37.5-71.2c1.1-2.1,1.8-4.5,1.9-6.8l5.9,17.6C223.5,129,222.5,133.8,219.5,137.2z">
  </path>
 </g>
</svg>