<svg version="1.1" id="Layer_1" xmlns:x="ns_extend;" xmlns:i="ns_ai;" xmlns:graph="ns_graphs;" xmlns="http://www.w3.org/2000/svg" xmlns:xlink="http://www.w3.org/1999/xlink" x="0px" y="0px" viewBox="0 0 229.5 220.7" style="enable-background:new 0 0 229.5 220.7;" xml:space="preserve">
 <style type="text/css">
  .st0{fill:#FFFFFF;}
 </style>
 <metadata>
  <sfw xmlns="ns_sfw;">
   <slices>
   </slices>
   <sliceSourceBounds bottomLeftOrigin="true" height="220.7" width="229.5" x="-303.2" y="-311">
   </sliceSourceBounds>
  </sfw>
 </metadata>
 <g>
  <path class="st0" d="M228.4,122.6l-30.6-90.8c-2.2-6.6-7.8-11.5-14.6-12.8L87.8,0.4c-6.7-1.3-13.6,1-18.1,6.1L4.9,79
		c-4.6,5.2-6.1,12.5-3.9,19l30.6,90.8c2.2,6.6,7.8,11.5,14.6,12.8l95.5,18.6c1.2,0.2,2.4,0.4,3.7,0.4c5.4,0,10.8-2.3,14.4-6.4
		l64.8-72.6C229.2,136.5,230.7,129.2,228.4,122.6z M191.5,33.9l20.1,59.7l-42.8-67.5c-0.9-1.5-2.1-2.7-3.3-3.8l16.4,3.2
		C186.4,26.4,190,29.6,191.5,33.9z M160,191.5l-37.3,1.9l60.3-34.9c0.1-0.1,0.2-0.1,0.3-0.2l-14.5,27.6
		C167,189.1,163.7,191.3,160,191.5z M66.3,190.9l-21.1-33.2c0.4,0.3,0.8,0.6,1.2,0.8l60.8,35.2c0.3,0.2,0.6,0.3,0.9,0.5l-32.4,1.6
		C71.9,195.9,68.3,194.1,66.3,190.9z M69.5,29.2l37.3-1.9L46.5,62.2c-0.1,0.1-0.2,0.1-0.3,0.2l14.5-27.6
		C62.4,31.5,65.8,29.4,69.5,29.2z M163.2,29.8L184.2,63c-0.4-0.3-0.8-0.6-1.2-0.8L122.2,27c-0.3-0.2-0.6-0.3-0.9-0.5l32.4-1.6
		C157.5,24.7,161.1,26.6,163.2,29.8z M183.7,145.5c0,2.9-1.6,5.6-4.1,7.1l-60.8,35.2c-2.5,1.5-5.7,1.5-8.2,0l-60.8-35.2
		c-2.5-1.5-4.1-4.2-4.1-7.1V75.1c0-2.9,1.6-5.7,4.1-7.1l60.8-35.2c1.3-0.7,2.7-1.1,4.1-1.1c1.4,0,2.9,0.4,4.1,1.1L179.6,68
		c2.5,1.5,4.1,4.2,4.1,7.1V145.5z M39.3,148.3l-17.7-27.9c-2-3.2-2.2-7.2-0.4-10.5L39,76v69.5C39,146.5,39.1,147.4,39.3,148.3z
		 M190.2,72.4l17.6,27.8c2,3.2,2.2,7.2,0.4,10.5l-17.8,33.9V75.1C190.4,74.2,190.3,73.3,190.2,72.4z M74.7,10.9
		c2.4-2.7,5.9-4.2,9.4-4.2c0.8,0,1.6,0.1,2.4,0.2l59.6,11.6l-76.9,3.9c-2.1,0.1-4.2,0.6-6.1,1.5L74.7,10.9z M9.9,83.5l42.8-48
		l-37.5,71.2c-1.1,2.1-1.8,4.5-1.9,6.8L7.4,95.9C5.9,91.6,6.9,86.9,9.9,83.5z M38,186.8L17.8,127l42.8,67.5c0.9,1.4,2.1,2.7,3.3,3.8
		l-16.4-3.2C43.1,194.2,39.4,191,38,186.8z M154.8,209.8c-2.9,3.3-7.5,4.8-11.8,4l-59.6-11.6l76.9-3.9c2.1-0.1,4.2-0.6,6.1-1.5
		L154.8,209.8z M219.5,137.2l-42.8,48l37.5-71.2c1.1-2.1,1.8-4.5,1.9-6.8l5.9,17.6C223.5,129,222.5,133.8,219.5,137.2z">
  </path>
 </g>
</svg>